<svg width="202" height="202" viewBox="0 0 202 202" fill="none" xmlns="http://www.w3.org/2000/svg">
<path d="M1 100.4V199.8L4.8 200.4C7.8 200.8 189 200.6 198.3 200.1L201 200V100.5V0.999997H101H1V100.4ZM109.1 28.1C112.1 31.3 113 36.3 111.1 39.8C110.4 41.1 112 44.3 117.5 53C121.5 59.3 124.6 64.8 124.4 65.2C123.4 66.7 116 68.1 114.2 67.1C113.2 66.6 109.6 61.6 106.1 56.1C102.7 50.6 99 45.8 98 45.5C96.9 45.2 94.9 43.5 93.5 41.9C87.6 34.9 92.4 25 101.7 25C105.4 25 106.7 25.5 109.1 28.1ZM132.6 33C135.1 35.2 147 55.7 147 57.9C147 60.1 127 98.9 125.9 99C125.6 99 124.1 96.8 122.7 94.2C119.6 88.5 119.9 86.5 125.3 76.7C127.2 73.3 130.2 67.7 132 64.3L135.2 58.1L127.6 45.5C123.4 38.6 120 32.7 120 32.5C120 30.7 130.3 31.2 132.6 33ZM84.9 36.7C86.1 37.7 92.2 46.6 98.4 56.5L109.8 74.5L105.2 75.2C98.1 76.3 96.2 74.5 83.3 53.7L79.1 47H64C54.2 47 49 46.6 49 46C49 44.3 51.7 39.5 53.6 37.9C55.6 36.3 62.4 35.3 74.1 35.1C81 35 83.2 35.4 84.9 36.7ZM50.5 55.9L53.5 58.8L66.8 58.3L80 57.7V60.4C80 63.8 77.6 68.6 75.5 69.4C74.6 69.7 68.9 70 62.9 70C53.9 70 51.3 70.3 48.3 72C43.4 74.6 41.1 74.5 36.9 71.7C30.1 67.2 30.9 56.7 38.3 53.4C42.5 51.5 46.8 52.4 50.5 55.9ZM163.6 65.4C166.2 68 167 69.6 167 72.5C167 77 161.7 83 157.7 83C155.5 83 154.4 84.5 148.9 95C145.4 101.6 142.2 107 141.7 107C140 107 135 101.1 135 99C135 97.9 137.5 92.2 140.6 86.5C144.3 79.5 145.9 75.4 145.5 74.1C144.7 71.5 147.2 65.6 150.1 63.6C151.4 62.7 154.2 62 156.3 62C159.4 62 160.9 62.7 163.6 65.4ZM81 76.6C81 78.1 75.7 85.9 74.2 86.6C73.3 87.1 65.3 87.7 56.6 88L40.6 88.5L33.6 100.9C29.7 107.7 26.1 113.4 25.5 113.4C24 113.6 20 106.9 20 104.3C20 101.9 29.4 84.2 33.1 79.7C34.7 77.7 36 77.5 48.7 76.9C70.4 76.1 81 76 81 76.6ZM173 95.8C173 98.5 171.4 102.4 167 110.1C163.8 115.9 160.3 121.3 159.4 122.1C158.3 123 154 123.5 144.6 123.7C137.4 123.9 127.3 124.1 122.2 124.3C117.2 124.4 113 124.1 113 123.7C113 121.2 117.3 115.1 119.7 114.2C121.2 113.6 129.4 112.8 137.8 112.4L153 111.7L160.3 98.9L167.5 86L170.3 89C172.2 91.2 173 93.1 173 95.8ZM57.9 99.6C59.1 101.1 60 102.9 60 103.6C60 104.3 57.5 109.6 54.5 115.3C50.4 123 49 126.7 49 129.8C49 137.8 41 143.1 34.2 139.6C30 137.4 28 134.3 28 129.7C28 125.1 32.1 120.3 36.8 119.4C39.4 118.9 40.6 117.3 46.1 107C52.9 94.1 53.4 93.8 57.9 99.6ZM71.5 107.1C75.3 112.9 74.6 115.9 66.6 130.9C63 137.8 60 143.8 60 144.4C60 145 63.4 150.9 67.4 157.5C71.5 164.1 74.6 169.8 74.3 170.2C73.7 171.4 65.2 171.2 63 170C60.2 168.5 48 147.7 48 144.5C48 143 52.5 133.2 58.3 122.4C63.9 111.8 68.6 103 68.6 103C68.7 103 70 104.9 71.5 107.1ZM98.6 128.9C100.1 130.5 104.6 136.9 108.5 143.2L115.7 154.5L130.8 154.2C141.3 154 146 154.3 146 155C146 157.1 143 161.8 140.4 163.9C138 165.8 136.4 166 124 166C112.2 166 110.1 165.8 108.8 164.2C106.9 162 85 127.4 85 126.6C85 126.3 87.4 126 90.4 126C95.1 126 96.2 126.4 98.6 128.9ZM158.1 129.9C160.5 132.3 161 133.7 161 137.5C161 147.3 151.1 151.5 143.6 144.9L140 141.8L127.1 142.1C119.9 142.3 113.8 142.1 113.4 141.7C113 141.4 113.5 139 114.4 136.5C116.5 131.2 116.4 131.2 131.6 130.7C139.9 130.5 143.2 129.9 145 128.7C148.9 126 154.6 126.5 158.1 129.9ZM82.2 135.7C83 136.7 86.2 141.5 89.3 146.5C93.1 152.5 95.9 155.9 97.8 156.8C102.1 158.7 104.6 163.9 103.4 168.7C102.4 172.9 97.4 177 93.3 177C86.4 177 80.9 169.8 83 163.5C83.6 161.6 83.8 159.5 83.4 158.8C83 158.1 79.8 152.9 76.2 147.2C72.7 141.6 69.9 136.7 70.2 136.5C71.1 135.5 75.7 134.1 78.1 134.1C79.5 134 81.4 134.8 82.2 135.7Z" stroke="black"/>
<path d="M98.2 32.2C95.4 35 97.5 40 101.5 40C102.7 40 104.1 39.5 104.8 38.8C105.5 38.1 106 36.7 106 35.5C106 34.3 105.5 32.9 104.8 32.2C104.1 31.5 102.7 31 101.5 31C100.3 31 98.9 31.5 98.2 32.2Z" fill="black"/>
<path d="M147.2 134.2C145.6 135.8 145.7 139.5 147.4 140.9C148.2 141.6 150.1 142 151.6 141.8C156.9 141.2 156.6 133 151.2 133C149.7 133 147.9 133.5 147.2 134.2Z" fill="black"/>
<circle cx="93.5" cy="166.5" r="4.5" fill="black"/>
<circle cx="38.5" cy="130.5" r="4.5" fill="black"/>
<circle cx="42.5" cy="63.5" r="4.5" fill="black"/>
<circle cx="156.5" cy="72.5" r="4.5" fill="black"/>
</svg>
