<svg width="555" height="450" viewBox="0 0 555 450" fill="none" xmlns="http://www.w3.org/2000/svg">
<path d="M283 15.1812C282.5 15.3812 280.8 15.7812 279.2 16.0812C274.8 17.0812 268.7 23.2812 267.4 27.9812C264.8 37.7812 269.1 47.1812 277.9 51.2812C283.7 53.8812 283.2 53.2812 299.4 79.1812C307.8 92.5812 309.9 94.6812 315 94.5812C319.3 94.4812 328.1 91.1812 327.7 89.6812C327.6 88.9812 322 79.8812 315.4 69.2812C308.7 58.7812 302.6 49.1812 301.9 47.8812C300.6 45.9812 300.6 45.3812 301.9 43.3812C304.1 39.9812 304.8 33.3812 303.5 28.5812C301.6 21.3812 295.7 16.1812 288.5 15.2812C286 14.9812 283.6 14.8812 283 15.1812ZM290.4 24.1812C294.1 26.0812 296.9 31.8812 296.1 36.0812C295.1 41.2812 291.3 44.1812 285.3 44.1812C281 44.1812 280 43.7812 277.4 40.8812C272.7 35.6812 273.8 28.2812 279.7 24.6812C283.6 22.2812 286.6 22.1812 290.4 24.1812Z" fill="black"/>
<path d="M325.8 28.2812C324.5 28.5812 323.5 29.1812 323.5 29.6812C323.5 30.1812 329.8 40.8812 337.5 53.5812C345.2 66.1812 351.5 77.2812 351.5 78.0812C351.5 78.8812 347 87.8812 341.5 98.1812C336 108.481 331.5 117.081 331.5 117.281C331.5 117.481 330.5 119.381 329.2 121.481C326 126.581 323.5 133.681 323.5 137.381C323.5 139.381 325.1 143.281 327.7 147.581C332.6 155.781 332.3 155.881 338.5 143.881C341.8 137.381 351.3 119.581 358 107.181C366.7 90.9812 370.8 82.0812 371.2 78.3812C371.6 74.5812 370.9 72.8812 363.5 60.1812C352.7 41.7812 346.6 32.6812 343.4 30.3812C340.7 28.4812 330.6 27.2812 325.8 28.2812Z" fill="black"/>
<path d="M220.5 35.5812C202.3 36.0812 199.6 36.3812 196.5 38.2812C190.9 41.5812 183.9 53.5812 186.6 55.2812C187.2 55.5812 199.6 55.2812 214.2 54.6812L240.7 53.3812L242.9 55.7812C244.2 57.0812 250.3 66.2812 256.5 76.1812C278.2 110.581 277.2 109.681 290.2 109.681C295.8 109.681 298.5 109.281 298.5 108.581C298.5 107.881 297 105.081 295.2 102.281C293.3 99.4812 286.3 88.3812 279.5 77.6812C260.5 47.2812 254.7 38.8812 252 37.0812C248.8 34.9812 245.6 34.8812 220.5 35.5812Z" fill="black"/>
<path d="M164 70.3812C159.4 72.7812 157.4 74.8812 155.4 79.1812C150.7 89.2812 154.8 100.081 165 104.781C171.6 107.781 178.9 106.781 184.6 101.881L187.8 99.2812L211 98.6812C232.5 98.1812 234.5 97.9812 236.5 96.1812C239.6 93.3812 241.2 89.9812 242 84.2812L242.8 79.4812L216.7 79.7812L190.6 80.1812L186.9 75.8812C184.9 73.5812 182 70.9812 180.4 70.1812C176.7 68.2812 167.8 68.3812 164 70.3812ZM179.4 79.1812C184.9 84.0812 184.2 92.7812 178.1 96.5812C174.2 99.0812 171.4 99.1812 167.6 97.2812C163.8 95.2812 161.5 91.4812 161.5 87.0812C161.5 84.2812 162.3 82.6812 165 79.9812C168.3 76.6812 168.9 76.4812 173.1 76.9812C175.6 77.1812 178.4 78.1812 179.4 79.1812Z" fill="black"/>
<path d="M383 88.1812C375.5 92.0812 371 100.881 372.2 109.281C372.7 113.181 371.9 115.081 362.1 133.381C356.3 144.381 351.5 154.381 351.5 155.581C351.5 158.981 353.9 162.981 358.6 167.181L362.8 170.981L364.6 168.581C365.6 167.281 366.5 165.881 366.5 165.581C366.5 165.181 371 156.481 376.5 146.181C382 135.781 386.5 126.981 386.5 126.581C386.5 125.681 388 125.181 394.9 123.681C404 121.681 409.5 114.981 409.5 105.681C409.5 99.0812 407.3 94.4812 402.2 90.3812C397.7 86.6812 387.9 85.5812 383 88.1812ZM395.8 95.7812C402.2 99.0812 403.5 107.381 398.7 112.881C396.2 115.581 395.1 115.981 391.1 115.981C387.4 115.981 385.9 115.481 383.5 113.181C381 110.781 380.5 109.581 380.5 105.381C380.5 101.381 381 100.081 383.4 97.5812C386.6 94.3812 391.7 93.6812 395.8 95.7812Z" fill="black"/>
<path d="M222.5 114.781C212.3 115.081 194.7 115.481 183.4 115.581C161.9 115.681 157.8 116.381 154.4 120.381C153.5 121.381 147.9 130.681 141.9 141.181C131.1 160.081 131 160.181 131 166.781C131 172.681 131.4 173.981 134.5 178.581C136.4 181.381 138.5 183.481 139 183.381C140 182.981 142.5 178.781 150.3 164.681C152.2 161.081 154.9 156.481 156.2 154.481C157.5 152.381 158.5 150.481 158.5 150.281C158.5 149.981 160.5 146.481 163 142.381L167.5 134.981L182.6 134.381C191 133.981 203.4 133.681 210.3 133.681C223.8 133.681 231.6 132.081 235.3 128.581C239.5 124.681 244.5 112.981 241.6 113.881C241.3 113.981 232.7 114.381 222.5 114.781Z" fill="black"/>
<path d="M401.6 154.981C387.4 180.081 385.3 183.681 385.2 183.781C385.1 183.781 371.5 184.181 355 184.581C319.1 185.481 319.2 185.481 313.3 195.681C311.2 199.281 309.5 202.581 309.5 203.081C309.5 204.481 385.9 202.981 392 201.381C397.5 200.081 398.7 198.581 407 183.481C409.2 179.481 411.9 174.681 413 172.681C423.5 154.481 424 152.681 420.9 145.081C419.2 140.881 414.9 134.681 413.7 134.681C413.3 134.681 407.9 143.781 401.6 154.981Z" fill="black"/>
<path d="M185.8 161.981C182.9 167.581 177.5 177.781 173.8 184.581L167 197.081L161.4 198.181C154.4 199.581 151.2 201.581 147.9 206.881C142.5 215.281 145.3 227.381 153.9 232.581C163 238.281 174.3 235.481 180 226.181C182.6 221.981 183 220.581 182.8 214.781C182.6 207.881 184.1 204.181 194.5 185.181C203.4 168.981 203.7 168.381 203.1 164.781C202.7 162.481 201 159.781 197.8 156.481C195.2 153.881 192.6 151.681 192 151.681C191.5 151.681 188.6 156.281 185.8 161.981ZM171.1 208.781C176.6 213.981 176.3 220.081 170.3 225.181C161.1 232.981 148.7 221.081 155 210.481C157.9 205.581 166.7 204.581 171.1 208.781Z" fill="black"/>
<path d="M217.7 175.881C215.4 180.481 211.4 187.981 208.9 192.681C203.1 203.681 192.8 222.981 187.5 233.181C181.4 244.981 181.6 245.881 195.5 268.681C208.2 289.581 210.1 291.981 215.4 293.581C220.9 295.181 231.5 294.681 231.5 292.781C231.5 292.481 225.2 281.681 217.5 268.781C209.8 255.981 203.5 244.781 203.5 243.981C203.5 242.681 207.5 234.681 216.5 218.181C223.8 204.781 230.4 190.781 231 187.281C231.5 184.281 231.1 182.381 229 178.281C227.5 175.381 225.4 171.781 224.2 170.281L222 167.581L217.7 175.881Z" fill="black"/>
<path d="M256.1 211.881C257.5 214.281 268.7 232.281 276 243.681C280 249.981 286.8 260.681 290.9 267.381C295.1 273.981 299.9 280.681 301.7 282.181L304.8 284.781L329.9 284.481C357.7 284.181 359 283.881 363.8 277.481C365.9 274.681 369.5 267.481 369.5 265.981C369.5 265.681 356.7 265.681 341 265.781C325.4 265.981 312.4 265.881 312.1 265.581C311.7 265.081 304.1 253.281 291.7 233.681C277.5 211.181 276.8 210.681 264.2 210.681C257.4 210.681 255.5 210.981 256.1 211.881Z" fill="black"/>
<path d="M372 213.881C370.9 214.481 369.1 215.781 368 216.781C366.3 218.281 362.7 218.681 341.5 219.581L317 220.681L314.8 223.381C312.8 225.881 308.7 238.181 309.6 239.081C309.8 239.381 321.4 239.081 335.4 238.481L360.8 237.381L365.3 242.581C368.8 246.681 370.7 247.981 375.1 249.281C380.1 250.681 380.9 250.681 385.6 249.181C401.2 243.981 403.9 223.281 390.1 214.781C386.3 212.381 375.5 211.881 372 213.881ZM387.7 223.381C390 225.581 390.5 226.881 390.5 230.981C390.5 237.281 386.6 241.681 381 241.681C373.4 241.681 368.6 236.381 369.8 229.081C370.5 224.781 372 222.781 376 220.981C380 219.281 384.3 220.081 387.7 223.381Z" fill="black"/>
<path d="M230 228.381C228.4 229.181 226.9 230.081 226.7 230.181C226.5 230.381 228.6 233.981 231.4 238.381C234.2 242.681 239.8 251.581 244 258.181C248.2 264.781 252.2 270.981 252.8 271.881C253.7 273.181 253.5 274.681 252.2 278.381C249 287.181 250.1 292.981 256 299.481C269.5 314.481 295.1 297.981 287 279.581C284.8 274.481 282.1 271.781 276.3 268.881C270.8 266.081 270.6 265.781 252.4 236.281C250 232.581 247.5 228.881 246.7 228.081C244.8 226.081 233.8 226.281 230 228.381ZM276.3 278.181C280 281.281 281.1 285.481 279.5 290.181C278 294.881 275.1 296.681 269.2 296.681C265 296.681 263.9 296.181 261.4 293.581C257.2 288.981 257.3 283.681 261.9 279.081C266.3 274.681 271.8 274.381 276.3 278.181Z" fill="black"/>
<path d="M8.45455 427V357.182H16.9091V388.273H54.1364V357.182H62.5909V427H54.1364V395.773H16.9091V427H8.45455ZM131.744 357.182V427H123.29V364.682H88.108V427H79.6534V357.182H131.744ZM201.026 357.182V427H192.571V364.682H157.389V427H148.935V357.182H201.026ZM241.261 379V372.864C241.261 371 241.591 369.023 242.25 366.932C242.932 364.818 243.909 362.784 245.182 360.83C246.477 358.852 248.034 357.136 249.852 355.682L254.216 359.227C252.784 361.273 251.534 363.409 250.466 365.636C249.42 367.841 248.898 370.205 248.898 372.727V379H241.261ZM258.716 379V372.864C258.716 371 259.045 369.023 259.705 366.932C260.386 364.818 261.364 362.784 262.636 360.83C263.932 358.852 265.489 357.136 267.307 355.682L271.67 359.227C270.239 361.273 268.989 363.409 267.92 365.636C266.875 367.841 266.352 370.205 266.352 372.727V379H258.716ZM275.224 427H266.361L291.997 357.182H300.724L326.361 427H317.497L296.634 368.227H296.088L275.224 427ZM278.497 399.727H314.224V407.227H278.497V399.727ZM337.236 427V357.182H360.827C366.304 357.182 370.781 358.17 374.259 360.148C377.759 362.102 380.349 364.75 382.031 368.091C383.713 371.432 384.554 375.159 384.554 379.273C384.554 383.386 383.713 387.125 382.031 390.489C380.372 393.852 377.804 396.534 374.327 398.534C370.849 400.511 366.395 401.5 360.963 401.5H344.054V394H360.69C364.44 394 367.452 393.352 369.724 392.057C371.997 390.761 373.645 389.011 374.668 386.807C375.713 384.58 376.236 382.068 376.236 379.273C376.236 376.477 375.713 373.977 374.668 371.773C373.645 369.568 371.986 367.841 369.69 366.591C367.395 365.318 364.349 364.682 360.554 364.682H345.69V427H337.236ZM394.355 364.682V357.182H446.719V364.682H424.764V427H416.31V364.682H394.355ZM513.043 379H504.588C504.088 376.568 503.213 374.432 501.963 372.591C500.736 370.75 499.236 369.205 497.463 367.955C495.713 366.682 493.77 365.727 491.634 365.091C489.497 364.455 487.27 364.136 484.952 364.136C480.724 364.136 476.895 365.205 473.463 367.341C470.054 369.477 467.338 372.625 465.315 376.784C463.315 380.943 462.315 386.045 462.315 392.091C462.315 398.136 463.315 403.239 465.315 407.398C467.338 411.557 470.054 414.705 473.463 416.841C476.895 418.977 480.724 420.045 484.952 420.045C487.27 420.045 489.497 419.727 491.634 419.091C493.77 418.455 495.713 417.511 497.463 416.261C499.236 414.989 500.736 413.432 501.963 411.591C503.213 409.727 504.088 407.591 504.588 405.182H513.043C512.406 408.75 511.247 411.943 509.565 414.761C507.884 417.58 505.793 419.977 503.293 421.955C500.793 423.909 497.986 425.398 494.872 426.42C491.781 427.443 488.474 427.955 484.952 427.955C478.997 427.955 473.702 426.5 469.065 423.591C464.429 420.682 460.781 416.545 458.122 411.182C455.463 405.818 454.134 399.455 454.134 392.091C454.134 384.727 455.463 378.364 458.122 373C460.781 367.636 464.429 363.5 469.065 360.591C473.702 357.682 478.997 356.227 484.952 356.227C488.474 356.227 491.781 356.739 494.872 357.761C497.986 358.784 500.793 360.284 503.293 362.261C505.793 364.216 507.884 366.602 509.565 369.42C511.247 372.216 512.406 375.409 513.043 379ZM532.705 357.182V363.318C532.705 365.182 532.364 367.17 531.682 369.284C531.023 371.375 530.045 373.409 528.75 375.386C527.477 377.341 525.932 379.045 524.114 380.5L519.75 376.955C521.182 374.909 522.42 372.784 523.466 370.58C524.534 368.352 525.068 365.977 525.068 363.455V357.182H532.705ZM550.159 357.182V363.318C550.159 365.182 549.818 367.17 549.136 369.284C548.477 371.375 547.5 373.409 546.205 375.386C544.932 377.341 543.386 379.045 541.568 380.5L537.205 376.955C538.636 374.909 539.875 372.784 540.92 370.58C541.989 368.352 542.523 365.977 542.523 363.455V357.182H550.159Z" fill="black"/>
</svg>
