<svg width="293" height="291" viewBox="0 0 293 291" fill="none" xmlns="http://www.w3.org/2000/svg">
<path d="M152.5 0.500011C152 0.700011 150.3 1.10001 148.7 1.40001C144.3 2.40001 138.2 8.60001 136.9 13.3C134.3 23.1 138.6 32.5 147.4 36.6C153.2 39.2 152.7 38.6 168.9 64.5C177.3 77.9 179.4 80 184.5 79.9C188.8 79.8 197.6 76.5 197.2 75C197.1 74.3 191.5 65.2 184.9 54.6C178.2 44.1 172.1 34.5 171.4 33.2C170.1 31.3 170.1 30.7 171.4 28.7C173.6 25.3 174.3 18.7 173 13.9C171.1 6.70001 165.2 1.50001 158 0.600011C155.5 0.300011 153.1 0.200011 152.5 0.500011ZM159.9 9.50001C163.6 11.4 166.4 17.2 165.6 21.4C164.6 26.6 160.8 29.5 154.8 29.5C150.5 29.5 149.5 29.1 146.9 26.2C142.2 21 143.3 13.6 149.2 10C153.1 7.60001 156.1 7.50001 159.9 9.50001Z" fill="#8FB539"/>
<path d="M195.3 13.6C194 13.9 193 14.5 193 15C193 15.5 199.3 26.2 207 38.9C214.7 51.5 221 62.6 221 63.4C221 64.2 216.5 73.2 211 83.5C205.5 93.8 201 102.4 201 102.6C201 102.8 200 104.7 198.7 106.8C195.5 111.9 193 119 193 122.7C193 124.7 194.6 128.6 197.2 132.9C202.1 141.1 201.8 141.2 208 129.2C211.3 122.7 220.8 104.9 227.5 92.5C236.2 76.3 240.3 67.4 240.7 63.7C241.1 59.9 240.4 58.2 233 45.5C222.2 27.1 216.1 18 212.9 15.7C210.2 13.8 200.1 12.6 195.3 13.6Z" fill="#8FB539"/>
<path d="M90 20.9C71.8 21.4 69.1 21.7 66 23.6C60.4 26.9 53.4 38.9 56.1 40.6C56.7 40.9 69.1 40.6 83.7 40L110.2 38.7L112.4 41.1C113.7 42.4 119.8 51.6 126 61.5C147.7 95.9 146.7 95 159.7 95C165.3 95 168 94.6 168 93.9C168 93.2 166.5 90.4 164.7 87.6C162.8 84.8 155.8 73.7 149 63C130 32.6 124.2 24.2 121.5 22.4C118.3 20.3 115.1 20.2 90 20.9Z" fill="#8FB539"/>
<path d="M33.5 55.7C28.9 58.1 26.9 60.2 24.9 64.5C20.2 74.6 24.3 85.4 34.5 90.1C41.1 93.1 48.4 92.1 54.1 87.2L57.3 84.6L80.5 84C102 83.5 104 83.3 106 81.5C109.1 78.7 110.7 75.3 111.5 69.6L112.3 64.8L86.2 65.1L60.1 65.5L56.4 61.2C54.4 58.9 51.5 56.3 49.9 55.5C46.2 53.6 37.3 53.7 33.5 55.7ZM48.9 64.5C54.4 69.4 53.7 78.1 47.6 81.9C43.7 84.4 40.9 84.5 37.1 82.6C33.3 80.6 31 76.8 31 72.4C31 69.6 31.8 68 34.5 65.3C37.8 62 38.4 61.8 42.6 62.3C45.1 62.5 47.9 63.5 48.9 64.5Z" fill="#8FB539"/>
<path d="M252.5 73.5C245 77.4 240.5 86.2 241.7 94.6C242.2 98.5 241.4 100.4 231.6 118.7C225.8 129.7 221 139.7 221 140.9C221 144.3 223.4 148.3 228.1 152.5L232.3 156.3L234.1 153.9C235.1 152.6 236 151.2 236 150.9C236 150.5 240.5 141.8 246 131.5C251.5 121.1 256 112.3 256 111.9C256 111 257.5 110.5 264.4 109C273.5 107 279 100.3 279 91C279 84.4 276.8 79.8 271.7 75.7C267.2 72 257.4 70.9 252.5 73.5ZM265.3 81.1C271.7 84.4 273 92.7 268.2 98.2C265.7 100.9 264.6 101.3 260.6 101.3C256.9 101.3 255.4 100.8 253 98.5C250.5 96.1 250 94.9 250 90.7C250 86.7 250.5 85.4 252.9 82.9C256.1 79.7 261.2 79 265.3 81.1Z" fill="#8FB539"/>
<path d="M92 100.1C81.8 100.4 64.2 100.8 52.9 100.9C31.4 101 27.3 101.7 23.9 105.7C23 106.7 17.4 116 11.4 126.5C0.6 145.4 0.5 145.5 0.5 152.1C0.5 158 0.9 159.3 4 163.9C5.9 166.7 8 168.8 8.5 168.7C9.5 168.3 12 164.1 19.8 150C21.7 146.4 24.4 141.8 25.7 139.8C27 137.7 28 135.8 28 135.6C28 135.3 30 131.8 32.5 127.7L37 120.3L52.1 119.7C60.5 119.3 72.9 119 79.8 119C93.3 119 101.1 117.4 104.8 113.9C109 110 114 98.3001 111.1 99.2001C110.8 99.3001 102.2 99.7001 92 100.1Z" fill="#8FB539"/>
<path d="M271.1 140.3C256.9 165.4 254.8 169 254.7 169.1C254.6 169.1 241 169.5 224.5 169.9C188.6 170.8 188.7 170.8 182.8 181C180.7 184.6 179 187.9 179 188.4C179 189.8 255.4 188.3 261.5 186.7C267 185.4 268.2 183.9 276.5 168.8C278.7 164.8 281.4 160 282.5 158C293 139.8 293.5 138 290.4 130.4C288.7 126.2 284.4 120 283.2 120C282.8 120 277.4 129.1 271.1 140.3Z" fill="#8FB539"/>
<path d="M55.3 147.3C52.4 152.9 47 163.1 43.3 169.9L36.5 182.4L30.9 183.5C23.9 184.9 20.7 186.9 17.4 192.2C12 200.6 14.8 212.7 23.4 217.9C32.5 223.6 43.8 220.8 49.5 211.5C52.1 207.3 52.5 205.9 52.3 200.1C52.1 193.2 53.6 189.5 64 170.5C72.9 154.3 73.2 153.7 72.6 150.1C72.2 147.8 70.5 145.1 67.3 141.8C64.7 139.2 62.1 137 61.5 137C61 137 58.1 141.6 55.3 147.3ZM40.6 194.1C46.1 199.3 45.8 205.4 39.8 210.5C30.6 218.3 18.2 206.4 24.5 195.8C27.4 190.9 36.2 189.9 40.6 194.1Z" fill="#8FB539"/>
<path d="M87.2 161.2C84.9 165.8 80.9 173.3 78.4 178C72.6 189 62.3 208.3 57 218.5C50.9 230.3 51.1 231.2 65 254C77.7 274.9 79.6 277.3 84.9 278.9C90.4 280.5 101 280 101 278.1C101 277.8 94.7 267 87 254.1C79.3 241.3 73 230.1 73 229.3C73 228 77 220 86 203.5C93.3 190.1 99.9 176.1 100.5 172.6C101 169.6 100.6 167.7 98.5 163.6C97 160.7 94.9 157.1 93.7 155.6L91.5 152.9L87.2 161.2Z" fill="#8FB539"/>
<path d="M125.6 197.2C127 199.6 138.2 217.6 145.5 229C149.5 235.3 156.3 246 160.4 252.7C164.6 259.3 169.4 266 171.2 267.5L174.3 270.1L199.4 269.8C227.2 269.5 228.5 269.2 233.3 262.8C235.4 260 239 252.8 239 251.3C239 251 226.2 251 210.5 251.1C194.9 251.3 181.9 251.2 181.6 250.9C181.2 250.4 173.6 238.6 161.2 219C147 196.5 146.3 196 133.7 196C126.9 196 125 196.3 125.6 197.2Z" fill="#8FB539"/>
<path d="M241.5 199.2C240.4 199.8 238.6 201.1 237.5 202.1C235.8 203.6 232.2 204 211 204.9L186.5 206L184.3 208.7C182.3 211.2 178.2 223.5 179.1 224.4C179.3 224.7 190.9 224.4 204.9 223.8L230.3 222.7L234.8 227.9C238.3 232 240.2 233.3 244.6 234.6C249.6 236 250.4 236 255.1 234.5C270.7 229.3 273.4 208.6 259.6 200.1C255.8 197.7 245 197.2 241.5 199.2ZM257.2 208.7C259.5 210.9 260 212.2 260 216.3C260 222.6 256.1 227 250.5 227C242.9 227 238.1 221.7 239.3 214.4C240 210.1 241.5 208.1 245.5 206.3C249.5 204.6 253.8 205.4 257.2 208.7Z" fill="#8FB539"/>
<path d="M99.5 213.7C97.9 214.5 96.4 215.4 96.2 215.5C96 215.7 98.1 219.3 100.9 223.7C103.7 228 109.3 236.9 113.5 243.5C117.7 250.1 121.7 256.3 122.3 257.2C123.2 258.5 123 260 121.7 263.7C118.5 272.5 119.6 278.3 125.5 284.8C139 299.8 164.6 283.3 156.5 264.9C154.3 259.8 151.6 257.1 145.8 254.2C140.3 251.4 140.1 251.1 121.9 221.6C119.5 217.9 117 214.2 116.2 213.4C114.3 211.4 103.3 211.6 99.5 213.7ZM145.8 263.5C149.5 266.6 150.6 270.8 149 275.5C147.5 280.2 144.6 282 138.7 282C134.5 282 133.4 281.5 130.9 278.9C126.7 274.3 126.8 269 131.4 264.4C135.8 260 141.3 259.7 145.8 263.5Z" fill="#8FB539"/>
</svg>
